<svg width="20" height="20" viewBox="0 0 20 20" fill="none" xmlns="http://www.w3.org/2000/svg">
<rect width="20" height="20" fill="#3E4361" />
<path d="M9.02778 12.4352C8.98493 12.4349 8.94256 12.4262 8.90308 12.4096C8.86361 12.3929 8.82779 12.3687 8.7977 12.3382C8.7676 12.3077 8.74381 12.2716 8.72768 12.2319C8.71155 12.1922 8.7034 12.1497 8.7037 12.1069C8.70791 11.2319 8.73611 10.8793 8.91143 10.4541C9.14262 9.93785 9.48802 9.48087 9.92158 9.11759C10.2391 8.85767 10.5194 8.55527 10.7545 8.21893C10.8825 8.02686 10.9576 7.8044 10.9722 7.57402C10.9875 7.44265 10.9728 7.30954 10.9294 7.18465C10.8859 7.05975 10.8147 6.9463 10.7212 6.85279C10.6277 6.75928 10.5143 6.68813 10.3894 6.64466C10.2645 6.60119 10.1314 6.58654 10 6.60179C9.34245 6.60179 9.10004 7.10605 9.0375 7.60415C9.02909 7.68409 8.99166 7.75816 8.93229 7.81234C8.87292 7.86651 8.79573 7.89702 8.71537 7.89809H6.76183C6.71803 7.89774 6.67474 7.88858 6.63453 7.87117C6.59433 7.85376 6.55804 7.82844 6.52781 7.79673C6.49758 7.76502 6.47404 7.72756 6.45857 7.68658C6.4431 7.64559 6.43602 7.60191 6.43776 7.55814C6.48313 6.2709 6.79975 5.70766 7.41647 5.13891C8.04064 4.56302 8.82328 4.33325 10 4.33325C11.201 4.33325 11.974 4.56011 12.5845 5.09613C12.9148 5.39897 13.1739 5.77111 13.3434 6.1859C13.5129 6.60068 13.5885 7.04782 13.5648 7.49526C13.5662 7.96092 13.4574 8.42029 13.2476 8.83597C12.9711 9.33474 12.6154 9.78524 12.1943 10.1699L11.5899 10.7451C11.2137 11.1127 10.9961 11.6128 10.9836 12.1386C10.9769 12.2194 10.9401 12.2947 10.8806 12.3497C10.8211 12.4047 10.7431 12.4354 10.6621 12.4358L9.02778 12.4352Z" fill="url(#question_mark)"/>
<path d="M9.83774 15.9999C10.6432 15.9999 11.2961 15.347 11.2961 14.5416C11.2961 13.7362 10.6432 13.0833 9.83774 13.0833C9.03232 13.0833 8.37939 13.7362 8.37939 14.5416C8.37939 15.347 9.03232 15.9999 9.83774 15.9999Z" fill="url(#dot)"/>
<defs>
<linearGradient id="question_mark" x1="10.001" y1="4.33325" x2="10.001" y2="12.4352" gradientUnits="userSpaceOnUse">
<stop offset="0.205" stop-color="#EBEBEB"/>
<stop offset="0.425" stop-color="#E6E6E6"/>
<stop offset="0.694" stop-color="#D7D7D7"/>
<stop offset="0.987" stop-color="#BEBEBE"/>
<stop offset="1" stop-color="#BDBDBD"/>
</linearGradient>
<linearGradient id="dot" x1="9.83774" y1="13.0833" x2="9.83774" y2="15.9999" gradientUnits="userSpaceOnUse">
<stop offset="0.205" stop-color="#EBEBEB"/>
<stop offset="0.425" stop-color="#E6E6E6"/>
<stop offset="0.694" stop-color="#D7D7D7"/>
<stop offset="0.987" stop-color="#BEBEBE"/>
<stop offset="1" stop-color="#BDBDBD"/>
</linearGradient>
</defs>
</svg>
